<svg id="Vector" xmlns="http://www.w3.org/2000/svg" viewBox="0 0 1200 1200"><defs><style>.cls-1,.cls-4{fill:none;stroke-linecap:round;stroke-linejoin:round;}.cls-1{stroke:#dfdfdf;stroke-width:7px;}.cls-2{fill:#dfdfdf;}.cls-3{fill:#fff;}.cls-4{stroke:#000;stroke-width:2.5px;}</style></defs><title>Artboard 1</title><line class="cls-1" x1="592" y1="1051" x2="592" y2="573"/><path d="M525.56,804.47c-1.4,7.26,120.26,201.2,130,201.2,12.49,0,41.17-21.28,41.17-27.29s-54.79-145.7-54.79-169.29S537.58,742,525.56,804.47Z"/><line class="cls-1" x1="504" y1="1105" x2="504" y2="573"/><rect class="cls-2" x="936.54" y="390.6" width="33.6" height="546.61" transform="translate(177.73 -201) rotate(13.26)"/><rect class="cls-2" x="741.03" y="724.14" width="33.6" height="314.42" transform="translate(1789.52 345.92) rotate(103.26)"/><rect class="cls-2" x="504" y="216" width="167" height="113"/><polygon class="cls-2" points="701.5 272.5 626.5 255 626.5 290 701.5 272.5"/><circle class="cls-3" cx="549.5" cy="272.5" r="8.5"/><circle class="cls-3" cx="587.5" cy="272.5" r="8.5"/><circle class="cls-3" cx="625.5" cy="272.5" r="8.5"/><path class="cls-4" d="M724.81,543.1C743,460.83,783,366.36,856.19,337.69"/><path class="cls-4" d="M924.53,333C955,345.22,968,382.89,968,411c0,157-32.32,314.12-51,326-33,21-187.12-29-201-62-4.11-9.77-4.92-37.4-1-73.06"/><path class="cls-4" d="M856.19,337.69a289.24,289.24,0,0,0,.47-38"/><path class="cls-4" d="M913,253c-1,6,1,57,15,89-3.07,4.91-21.58,13.58-40.5,15.39"/><path class="cls-4" d="M892.4,251.55C884.18,281.29,865.83,302,844.5,302c-29,0-52.5-38.28-52.5-85.5A136.81,136.81,0,0,1,793.84,194"/><path class="cls-4" d="M774.5,191.89C735.92,183.59,730,153,730,141c0-37,33-38,47-46,15.94-9.11,28-26,51-26,22,0,38.5,21,52,28,23,12,78,10,78,52,0,30-11,38-11,52,0,8,2,11,2,27,0,18.31-16,28.25-27.34,30.5"/><path class="cls-4" d="M888.5,207a18.5,18.5,0,0,1,0,37"/><path class="cls-4" d="M836.5,525c-5.59,13.41-14,37-15.5,59-15-6-159-71-186-71-53,0-67,17-67,25,0,15,65,13,74,18S829,677,851,677c19.87,0,66.68-76.71,77-108.49"/><path class="cls-4" d="M953.25,537.5C947.45,556,940.33,568.71,934,569c-22,1-102-41-108-54-4-8.57,26-68.47,60.65-101.67"/><rect class="cls-2" x="107" y="560" width="510" height="20"/><line class="cls-1" x1="138" y1="1105" x2="138" y2="573"/><line class="cls-1" x1="230" y1="1051" x2="230" y2="573"/><rect x="481" y="549" width="115" height="11"/><rect x="376.57" y="479.54" width="156.62" height="3.31" transform="translate(154.71 1071.42) rotate(-109.65)"/><line class="cls-1" x1="854.27" y1="914.6" x2="924.05" y2="1123.93"/><line class="cls-1" x1="684.74" y1="1028.45" x2="618.45" y2="1116.55"/><line class="cls-1" x1="780.63" y1="901.62" x2="707.49" y2="998.82"/><line class="cls-1" x1="672.24" y1="876.08" x2="511.76" y2="1089.34"/><line class="cls-1" x1="749.18" y1="895.67" x2="818.96" y2="1105"/><path d="M909.09,740.21C864.54,751.56,729,705.83,716,675a36,36,0,0,1-2-7.85C655.1,652,591.66,640.84,536.47,640.84c-90.75,0-165,397.4-165,404.25,7.28,2.14,56.52,9,56.52,9S551.34,802.29,554.77,785.16c12.42,8.56,168.89,89.92,229.3,89.92,66.21,0,128.27-68,128.27-130.61C912.34,743.41,911.22,742,909.09,740.21Z"/><polyline class="cls-4" points="426.27 1049.59 413.58 1125.12 292.98 1105.99 388.38 1087.43 396.38 1044.6"/><polyline class="cls-4" points="690.3 977.89 733.88 1040.88 634.1 1111.26 689.54 1031.43 665.4 995.16"/></svg>